<?xml version="1.0" standalone="no"?><!DOCTYPE svg PUBLIC "-//W3C//DTD SVG 1.1//EN" "http://www.w3.org/Graphics/SVG/1.1/DTD/svg11.dtd"><svg t="1624192440570" class="icon" viewBox="0 0 1024 1024" version="1.1" xmlns="http://www.w3.org/2000/svg" p-id="6630" xmlns:xlink="http://www.w3.org/1999/xlink" width="200" height="200"><defs><style type="text/css"></style></defs><path d="M 893.846 1011.37 h -750 c -45.949 0 -83.333 -37.374 -83.333 -83.334 a 41.681 41.681 0 0 1 8.332 -25.004 l 125 -166.666 c 13.814 -18.393 39.937 -22.136 58.339 -8.321 c 18.402 13.794 22.135 39.917 8.331 58.329 L 154.262 928.035 h 729.167 L 777.177 786.373 c -13.804 -18.412 -10.071 -44.535 8.331 -58.329 c 18.434 -13.814 44.535 -10.071 58.34 8.321 l 125 166.666 a 41.687 41.687 0 0 1 8.331 25.004 c 0 45.96 -37.384 83.334 -83.333 83.334 Z" p-id="6631"></path><path d="M 493.771 95.333 c 160.827 0 291.667 132.121 291.667 294.515 c 0 30.782 -9.207 69.296 -26.724 112.102 L 485.113 782.771 L 229.102 502.926 c -17.924 -42.664 -26.998 -80.647 -26.998 -113.078 c 0 -162.394 130.839 -294.515 291.667 -294.515 m 0 -83.333 c -207.113 0 -375 169.169 -375 377.848 c 0 55.481 18.147 111.613 39.469 159.078 l 297.088 324.748 c 7.945 8.667 18.372 13.021 28.789 13.021 s 20.833 -4.354 28.778 -13.021 l 316.396 -324.748 c 20.6 -46.773 39.479 -104.614 39.479 -159.078 C 868.771 181.169 700.873 12 493.771 12 Z" p-id="6632"></path><path d="M 493.771 306.86 c 45.949 0 83.333 37.374 83.333 83.333 c 0 45.96 -37.384 83.334 -83.333 83.334 s -83.333 -37.374 -83.333 -83.334 c -0.001 -45.959 37.383 -83.333 83.333 -83.333 m 0 -83.333 c -92.051 0 -166.667 74.625 -166.667 166.666 S 401.719 556.86 493.771 556.86 c 92.051 0 166.667 -74.626 166.667 -166.667 s -74.617 -166.666 -166.667 -166.666 Z" p-id="6633"></path></svg>