<?xml version="1.0" standalone="no"?><!DOCTYPE svg PUBLIC "-//W3C//DTD SVG 1.1//EN" "http://www.w3.org/Graphics/SVG/1.1/DTD/svg11.dtd"><svg t="1624192631415" class="icon" viewBox="0 0 1024 1024" version="1.1" xmlns="http://www.w3.org/2000/svg" p-id="8160" xmlns:xlink="http://www.w3.org/1999/xlink" width="200" height="200"><defs><style type="text/css"></style></defs><path d="M810.1 484.9c-15.9 0-28.9 12.9-28.9 28.9v301.5c0 74.3-60.5 134.8-134.8 134.8H216.8C142.4 950 82 889.6 82 815.2V385.6c0-74.3 60.5-134.8 134.8-134.8h290.7c15.9 0 28.9-12.9 28.9-28.9S523.5 193 507.5 193H216.8c-106.2 0-192.6 86.4-192.6 192.6v429.6c0 106.2 86.4 192.6 192.6 192.6h429.6c106.2 0 192.6-86.4 192.6-192.6V513.8c-0.1-16-13-28.9-28.9-28.9z" fill="#444444" p-id="8161"></path><path d="M533.5 335.1c-9.7 9.7-27.6 33.6-70.5 128.1-11.9 26.3-22.8 51.5-29.8 68-3.8 9.1-7 16.5-9.1 21.7-5 11.9-8 19.1-3.4 30.2 6.1 14.7 22.9 21.7 37.6 15.7 0.5-0.2 47.7-19.6 97.9-42.4 94.6-42.9 118.4-60.8 128.1-70.5l195.2-195.2-150.8-150.8-195.2 195.2z m110 110.1c-12.4 12.4-73.9 42.7-141.7 72.5 29.8-67.8 60.1-129.2 72.5-141.7l154.4-154.4 69.2 69.2-154.4 154.4zM971.7 47.8c-41.6-41.6-109.3-41.6-150.9 0l-49.9 50 150.9 150.9 50-49.9c41.5-41.7 41.5-109.4-0.1-151z m-40.9 110l-9.1 9.1-69.2-69.2 9.1-9.1c19.1-19.1 50.1-19.1 69.2 0s19.1 50.2 0 69.2z" fill="#444444" p-id="8162"></path></svg>