<?xml version="1.0" standalone="no"?><!DOCTYPE svg PUBLIC "-//W3C//DTD SVG 1.1//EN" "http://www.w3.org/Graphics/SVG/1.1/DTD/svg11.dtd"><svg t="1624192548220" class="icon" viewBox="0 0 1036 1024" version="1.1" xmlns="http://www.w3.org/2000/svg" p-id="7309" xmlns:xlink="http://www.w3.org/1999/xlink" width="202.34375" height="200"><defs><style type="text/css"></style></defs><path d="M724.232157 1023.997602a270.028281 270.028281 0 0 1-115.589371-25.420069A1236.47053 1236.47053 0 0 1 23.981197 426.865791a320.868419 320.868419 0 0 1 36.45142-308.877821L115.589371 41.248139A99.761781 99.761781 0 0 1 196.645817 0.00048a99.761781 99.761781 0 0 1 81.536071 42.206907l130.457713 185.134842a99.761781 99.761781 0 0 1-32.134804 143.887184l-54.67713 31.65518a40.288411 40.288411 0 0 0-16.307214 54.197506A975.555104 975.555104 0 0 0 575.548734 719.436397a40.288411 40.288411 0 0 0 54.197506-17.266462l30.216308-55.636378a99.761781 99.761781 0 0 1 143.887184-35.012548l188.012586 126.620722a99.761781 99.761781 0 0 1 4.316615 162.592517l-75.300959 57.075249a324.705411 324.705411 0 0 1-196.645817 66.188105z m-527.58634-959.24789a32.614428 32.614428 0 0 0-26.858941 13.429471L114.630123 157.317134a253.721067 253.721067 0 0 0-28.777437 244.128587 1184.671144 1184.671144 0 0 0 551.087913 536.699195 239.811972 239.811972 0 0 0 239.811972-35.492172l75.30096-57.07525a33.094052 33.094052 0 0 0 0-53.717881l-188.012587-126.620722a33.094052 33.094052 0 0 0-47.962394 11.510975l-30.216309 55.636377a107.435764 107.435764 0 0 1-143.887183 44.605027 1030.711857 1030.711857 0 0 1-294.968726-287.774367 107.435764 107.435764 0 0 1 41.247659-143.887183l54.67713-31.175556a33.094052 33.094052 0 0 0 10.551726-47.962395L223.504758 80.577302a32.614428 32.614428 0 0 0-26.858941-13.909094z" fill="#515151" p-id="7310"></path></svg>