<?xml version="1.0" standalone="no"?><!DOCTYPE svg PUBLIC "-//W3C//DTD SVG 1.1//EN" "http://www.w3.org/Graphics/SVG/1.1/DTD/svg11.dtd"><svg t="1607907047966" class="icon" viewBox="0 0 1024 1024" version="1.1" xmlns="http://www.w3.org/2000/svg" p-id="6749" xmlns:xlink="http://www.w3.org/1999/xlink" width="200" height="200"><defs><style type="text/css"></style></defs><path d="M330.667 768a53.333 53.333 0 1 1 0 106.667 53.333 53.333 0 0 1 0-106.667z m384 0a53.333 53.333 0 1 1 0 106.667 53.333 53.333 0 0 1 0-106.667zM94.763 160h54.741a96 96 0 0 1 92.907 71.787l1.024 4.394 13.205 62.486h0.213L299.733 504l32.491 157.333h402.219l61.653-298.666H313.813l-13.376-64h495.68a64 64 0 0 1 62.678 76.949L797.14 674.283a64 64 0 0 1-62.698 51.05H332.224a64 64 0 0 1-62.677-51.05L208.96 380.864l-0.405 0.085-27.734-131.562a32 32 0 0 0-28.309-25.238l-2.987-0.149H94.741v-64h54.742z" p-id="6750"></path></svg>